<?xml version="1.0"?>
<svg xmlns="http://www.w3.org/2000/svg" xmlns:xlink="http://www.w3.org/1999/xlink" xmlns:svgjs="http://svgjs.com/svgjs" version="1.1" width="512" height="512" x="0" y="0" viewBox="0 0 512 512" style="enable-background:new 0 0 512 512" xml:space="preserve" class=""><g>
<g xmlns="http://www.w3.org/2000/svg">
	<g>
		<path d="M207.215,416.64h-90.657c-4.143,0-7.501,3.359-7.501,7.501c0,4.143,3.359,7.501,7.501,7.501h90.657    c4.143,0,7.501-3.359,7.501-7.501C214.717,419.999,211.358,416.64,207.215,416.64z" fill="#ffffff" data-original="#000000" style="" class=""/>
	</g>
</g>
<g xmlns="http://www.w3.org/2000/svg">
	<g>
		<path d="M243.065,187.037l-38.838-30.923c1.968-5.596,3.748-14.857,3.748-30.049c0-22.304-4.633-41.216-8.589-53.3    c2.514-2.238,4.109-5.488,4.109-9.11V12.21c0-6.733-5.478-12.21-12.211-12.21h-58.796c-6.733,0-12.21,5.478-12.21,12.21v51.445    c0,3.623,1.595,6.872,4.108,9.11c-3.956,12.084-8.589,30.996-8.589,53.3c0,15.192,1.781,24.453,3.749,30.049l-38.838,30.923    c-8.869,7.061-13.956,17.613-13.956,28.95V487.03c0,13.769,11.202,24.97,24.971,24.97h140.326c13.769,0,24.97-11.201,24.97-24.97    V215.987C257.02,204.65,251.934,194.098,243.065,187.037z M135.281,15.003h53.211v11.482h-53.211V15.003z M135.281,42.515h53.211    v18.348h-53.211V42.515z M139.165,75.866h45.442c3.102,9.114,6.859,23.175,8.007,40.038h-61.456    C132.306,99.041,136.064,84.98,139.165,75.866z M81.756,241.034h24.122c4.143,0,7.501-3.359,7.501-7.501    c0-4.142-3.359-7.501-7.501-7.501H81.756v-10.045c0-6.741,3.025-13.015,8.298-17.213l43.578-34.698    c1.849-1.471,3.399-3.303,3.329-5.665c-0.066-2.244-0.679-3.95-2.396-5.281c-0.711-1.346-3.236-7.149-3.692-22.223h62.028    c-0.456,15.075-2.981,20.877-3.692,22.224c-1.718,1.331-2.331,3.037-2.396,5.281c-0.07,2.362,1.48,4.193,3.329,5.665    l43.578,34.698c5.273,4.199,8.297,10.472,8.297,17.213v10.044H140.781c-4.143,0-7.501,3.359-7.501,7.501    c0,4.142,3.359,7.501,7.501,7.501h101.236v219.29H81.756V241.034z M242.018,487.03h-0.001c0,5.496-4.471,9.967-9.967,9.967H91.724    c-5.496,0-9.968-4.471-9.968-9.967v-11.702h160.262V487.03z" fill="#ffffff" data-original="#000000" style="" class=""/>
	</g>
</g>
<g xmlns="http://www.w3.org/2000/svg">
	<g>
		<path d="M224.69,277.211c-1.206-3.885-4.017-7.094-7.711-8.804c-36.557-16.918-73.629-16.919-110.187,0    c-3.693,1.709-6.504,4.918-7.711,8.803c-1.204,3.876-0.708,8.101,1.361,11.591l6.661,11.237c2.667,4.497,7.433,7.056,12.363,7.055    c1.951,0,3.928-0.4,5.81-1.24c24.978-11.144,48.245-11.143,73.22,0c6.64,2.961,14.453,0.462,18.173-5.815l6.661-11.236    C225.398,285.312,225.894,281.087,224.69,277.211z M204.051,291.903c-28.365-12.496-55.962-12.496-84.328,0l-6.023-10.16    c31.978-14.612,64.396-14.613,96.374,0L204.051,291.903z" fill="#ffffff" data-original="#000000" style="" class=""/>
	</g>
</g>
<g xmlns="http://www.w3.org/2000/svg">
	<g>
		<path d="M161.887,319.724c-28.71,0-51.2,16.454-51.2,37.459c0,21.005,22.489,37.459,51.2,37.459s51.2-16.454,51.2-37.459    S190.597,319.724,161.887,319.724z M161.887,379.64c-19.621,0-36.197-10.284-36.197-22.456    c-0.001-12.173,16.576-22.457,36.197-22.457c19.621,0,36.197,10.284,36.197,22.457C198.084,369.356,181.508,379.64,161.887,379.64    z" fill="#ffffff" data-original="#000000" style="" class=""/>
	</g>
</g>
<g xmlns="http://www.w3.org/2000/svg">
	<g>
		<path d="M433.34,345.306H329.317c-6.567,0-11.91,5.343-11.91,11.91v131.887c0,12.625,10.272,22.897,22.896,22.897h82.049    c12.625,0,22.896-10.272,22.896-22.897V357.216C445.249,350.649,439.906,345.306,433.34,345.306z M332.411,407.288h11.181    c4.143,0,7.501-3.359,7.501-7.501c0-4.142-3.358-7.501-7.501-7.501h-11.181v-31.977h97.835v31.977h-51.751    c-4.143,0-7.501,3.359-7.501,7.501c0,4.142,3.358,7.501,7.501,7.501h51.751v64.436c0,0.167-0.005,0.31-0.013,0.431    c-1.553,0.371-4.95,0.377-7.297,0.368h-83.215c-2.334,0.011-5.743,0.003-7.297-0.368c-0.008-0.121-0.013-0.264-0.013-0.431    V407.288z M430.247,489.103L430.247,489.103c-0.001,4.352-3.542,7.894-7.894,7.894h-82.049c-4.352,0-7.893-3.541-7.893-7.894    v-1.807c2.341,0.232,4.806,0.237,7.318,0.229h83.2c2.514,0.008,4.976,0.003,7.318-0.229V489.103z" fill="#ffffff" data-original="#000000" style="" class=""/>
	</g>
</g>
<g xmlns="http://www.w3.org/2000/svg">
</g>
<g xmlns="http://www.w3.org/2000/svg">
</g>
<g xmlns="http://www.w3.org/2000/svg">
</g>
<g xmlns="http://www.w3.org/2000/svg">
</g>
<g xmlns="http://www.w3.org/2000/svg">
</g>
<g xmlns="http://www.w3.org/2000/svg">
</g>
<g xmlns="http://www.w3.org/2000/svg">
</g>
<g xmlns="http://www.w3.org/2000/svg">
</g>
<g xmlns="http://www.w3.org/2000/svg">
</g>
<g xmlns="http://www.w3.org/2000/svg">
</g>
<g xmlns="http://www.w3.org/2000/svg">
</g>
<g xmlns="http://www.w3.org/2000/svg">
</g>
<g xmlns="http://www.w3.org/2000/svg">
</g>
<g xmlns="http://www.w3.org/2000/svg">
</g>
<g xmlns="http://www.w3.org/2000/svg">
</g>
</g></svg>
