<?xml version="1.0"?>
<svg xmlns="http://www.w3.org/2000/svg" xmlns:xlink="http://www.w3.org/1999/xlink" xmlns:svgjs="http://svgjs.com/svgjs" version="1.1" width="512" height="512" x="0" y="0" viewBox="0 0 512.004 512.004" style="enable-background:new 0 0 512 512" xml:space="preserve" class=""><g transform="matrix(1,0,0,1,0,40)"><g xmlns="http://www.w3.org/2000/svg"><path d="m351.745 279.814c-57.416-39.197-133.618-39.506-191.486 0-17.297 11.807-19.546 36.542-4.685 51.402 11.358 11.36 29.359 13.013 42.809 3.901 34.664-23.489 80.445-23.575 115.237 0 23.752 16.095 55.153-2.656 52.518-30.836-.928-9.938-6.175-18.856-14.393-24.467zm-6.629 40.089c-5.951 5.951-15.423 6.778-22.52 1.969-40.071-27.152-92.959-27.259-133.187 0-7.098 4.811-16.569 3.983-22.52-1.969-7.777-7.777-6.621-20.723 2.392-26.874 52.103-35.572 121.144-35.706 173.444 0 9.029 6.164 10.152 19.113 2.391 26.874z" fill="#ffffff" data-original="#000000" style="" class=""/><path d="m426.923 208.297c-99.579-80.373-242.1-80.505-341.843 0-15.489 12.502-16.677 35.751-2.591 49.836 12.158 12.157 31.44 13.172 44.855 2.358 74.693-60.212 182.119-60.617 257.315 0 22.558 18.186 56.201 1.119 54.655-27.923-.503-9.475-5.02-18.322-12.391-24.271zm-8.722 38.521c-6.363 6.364-16.466 6.888-23.5 1.216-80.533-64.918-196.326-65.353-277.398 0-7.035 5.672-17.137 5.147-23.5-1.216-7.21-7.21-6.958-19.385 1.327-26.07 93.388-75.375 227.724-75.886 321.745 0 8.288 6.689 8.532 18.865 1.326 26.07z" fill="#ffffff" data-original="#000000" style="" class=""/><path d="m511.979 160.475c-.348-9.309-4.596-18.132-11.654-24.207-140.425-120.885-348.482-120.659-488.646-.001-7.058 6.076-11.306 14.899-11.654 24.208-1.095 29.323 33.404 45.696 55.533 26.657 115.21-99.139 285.892-98.953 400.887 0 22.163 19.067 56.628 2.633 55.534-26.657zm-21.13 13.695c-6.467 6.469-16.995 6.833-23.967.833-121.201-104.291-300.757-104.121-421.759 0-6.973 6.002-17.501 5.635-23.968-.833-7.201-7.2-6.846-19.054.963-25.777 134.42-115.714 333.599-115.499 467.769.001 7.717 6.642 8.248 18.491.962 25.776z" fill="#ffffff" data-original="#000000" style="" class=""/><path d="m256.002 466.315c-30.878 0-56-25.121-56-56s25.122-56 56-56 56 25.121 56 56-25.122 56-56 56zm0-96c-22.056 0-40 17.944-40 40s17.944 40 40 40 40-17.944 40-40-17.944-40-40-40z" fill="#ffffff" data-original="#000000" style="" class=""/></g></g></svg>
